<svg width="15" height="14" viewBox="0 0 15 14" fill="none" xmlns="http://www.w3.org/2000/svg">
<path d="M7.98367 8.7738e-05C8.13612 -0.00015831 8.28774 0.0224724 8.43347 0.0672226L12.5757 1.30921C13.0078 1.45504 13.3851 1.72916 13.6574 2.09501C13.9297 2.46085 14.084 2.90102 14.0996 3.3568L14.0996 10.0702C14.0773 10.5202 13.92 10.953 13.6482 11.3122C13.3763 11.6715 13.0026 11.9405 12.5757 12.0843L8.43347 13.3598C8.23259 13.4283 8.01833 13.4482 7.80827 13.4178C7.59822 13.3875 7.39835 13.3078 7.22505 13.1853C7.05954 13.0547 6.92711 12.887 6.83847 12.6957C6.74983 12.5044 6.70747 12.295 6.71483 12.0843L6.71483 9.3989C6.71483 9.30987 6.7502 9.22449 6.81315 9.16154C6.8761 9.09859 6.96148 9.06322 7.0505 9.06322C7.13953 9.06322 7.22491 9.09859 7.28786 9.16154C7.35081 9.22449 7.38618 9.30987 7.38618 9.3989L7.38618 12.0843C7.37875 12.1907 7.3968 12.2974 7.43883 12.3955C7.48086 12.4935 7.54566 12.5802 7.62786 12.6482C7.71643 12.7083 7.81809 12.7464 7.92436 12.7592C8.03063 12.7721 8.13844 12.7593 8.23878 12.722L12.381 11.4801C12.6746 11.3738 12.9305 11.1834 13.1168 10.9327C13.303 10.682 13.4113 10.3821 13.4283 10.0702L13.4283 3.3568C13.4113 3.04496 13.303 2.745 13.1168 2.49431C12.9305 2.24361 12.6746 2.05326 12.381 1.94698L8.23878 0.704998C8.13957 0.663417 8.03122 0.648469 7.92446 0.661633C7.81769 0.674797 7.71622 0.715616 7.63008 0.780051C7.54394 0.844485 7.47613 0.9303 7.43335 1.029C7.39057 1.1277 7.37431 1.23586 7.38618 1.34277L7.38618 4.02815C7.38618 4.11717 7.35081 4.20255 7.28786 4.2655C7.22491 4.32845 7.13953 4.36382 7.0505 4.36382C6.96148 4.36382 6.8761 4.32845 6.81315 4.2655C6.7502 4.20255 6.71483 4.11717 6.71483 4.02815L6.71483 1.34277C6.70747 1.13208 6.74983 0.922623 6.83847 0.731345C6.92711 0.540068 7.05954 0.372351 7.22505 0.241772C7.44523 0.0814714 7.71135 -0.0033102 7.98367 8.7738e-05Z" fill="#2B3C4E"/>
<path d="M1.67992 4.36385C1.74617 4.36518 1.81094 4.38369 1.8679 4.41756C1.94194 4.46802 1.99325 4.54549 2.01082 4.63335C2.02839 4.7212 2.01082 4.81245 1.96188 4.8875L0.740038 6.71356L1.96188 8.53961C2.01174 8.61439 2.02984 8.70592 2.01222 8.79405C1.99459 8.88218 1.94268 8.9597 1.8679 9.00955C1.79311 9.05941 1.70159 9.07751 1.61346 9.05989C1.52533 9.04226 1.44781 8.99034 1.39795 8.91556L0.0552678 6.90153C0.0193975 6.8454 0.000337601 6.78017 0.000337601 6.71356C0.000337601 6.64694 0.0193975 6.58171 0.0552678 6.52558L1.39795 4.51155C1.42988 4.46634 1.4721 4.42938 1.52112 4.4037C1.57015 4.37802 1.62458 4.36436 1.67992 4.36385Z" fill="#2B3C4E"/>
<path d="M0.336984 6.37785L12.4212 6.37785C12.5102 6.37785 12.5956 6.41322 12.6585 6.47617C12.7215 6.53912 12.7568 6.6245 12.7568 6.71352C12.7568 6.80255 12.7215 6.88793 12.6585 6.95088C12.5956 7.01383 12.5102 7.04919 12.4212 7.04919L0.336984 7.04919C0.247957 7.04919 0.162578 7.01383 0.0996275 6.95088C0.0366764 6.88793 0.0013113 6.80255 0.0013113 6.71352C0.0013113 6.6245 0.0366764 6.53912 0.0996275 6.47617C0.162578 6.41322 0.247957 6.37785 0.336984 6.37785Z" fill="#2B3C4E"/>
</svg>
